{
	"asset":{
		"generator":"Khronos glTF Blender I/O v4.2.69",
		"version":"2.0"
	},
	"scene":0,
	"scenes":[
		{
			"name":"Scene",
			"nodes":[
				0
			]
		}
	],
	"nodes":[
		{
			"mesh":0,
			"name":"Curve",
			"rotation":[
				0.7071068286895752,
				0,
				0,
				0.7071067690849304
			],
			"scale":[
				229.1777801513672,
				229.1777801513672,
				229.1777801513672
			]
		}
	],
	"materials":[
		{
			"doubleSided":true,
			"name":"SVGMat.001",
			"pbrMetallicRoughness":{
				"baseColorFactor":[
					0,
					0,
					0,
					1
				],
				"metallicFactor":0,
				"roughnessFactor":0.4000000059604645
			}
		}
	],
	"meshes":[
		{
			"name":"Curve.001",
			"primitives":[
				{
					"attributes":{
						"POSITION":0,
						"NORMAL":1,
						"TEXCOORD_0":2
					},
					"indices":3,
					"material":0
				}
			]
		}
	],
	"accessors":[
		{
			"bufferView":0,
			"componentType":5126,
			"count":3888,
			"max":[
				0.012982487678527832,
				0.0010000000474974513,
				-0.0011286735534667969
			],
			"min":[
				0.0011289119720458984,
				-0.0010000000474974513,
				-0.012979745864868164
			],
			"type":"VEC3"
		},
		{
			"bufferView":1,
			"componentType":5126,
			"count":3888,
			"type":"VEC3"
		},
		{
			"bufferView":2,
			"componentType":5126,
			"count":3888,
			"type":"VEC2"
		},
		{
			"bufferView":3,
			"componentType":5123,
			"count":11532,
			"type":"SCALAR"
		}
	],
	"bufferViews":[
		{
			"buffer":0,
			"byteLength":46656,
			"byteOffset":0,
			"target":34962
		},
		{
			"buffer":0,
			"byteLength":46656,
			"byteOffset":46656,
			"target":34962
		},
		{
			"buffer":0,
			"byteLength":31104,
			"byteOffset":93312,
			"target":34962
		},
		{
			"buffer":0,
			"byteLength":23064,
			"byteOffset":124416,
			"target":34963
		}
	],
	"buffers":[
		{
			"byteLength":147480,
			"uri":"linkedin.bin"
		}
	]
}
