{
	"asset":{
		"generator":"Khronos glTF Blender I/O v4.2.69",
		"version":"2.0"
	},
	"scene":0,
	"scenes":[
		{
			"name":"Scene",
			"nodes":[
				0
			]
		}
	],
	"nodes":[
		{
			"mesh":0,
			"name":"Curve",
			"scale":[
				50,
				50,
				50
			]
		}
	],
	"materials":[
		{
			"doubleSided":true,
			"name":"SVGMat.003",
			"pbrMetallicRoughness":{
				"baseColorFactor":[
					0.017641954123973846,
					0.022173885256052017,
					0.028426039963960648,
					1
				],
				"metallicFactor":0,
				"roughnessFactor":0.4000000059604645
			}
		}
	],
	"meshes":[
		{
			"name":"Curve.001",
			"primitives":[
				{
					"attributes":{
						"POSITION":0,
						"NORMAL":1,
						"TEXCOORD_0":2
					},
					"indices":3,
					"material":0
				}
			]
		}
	],
	"accessors":[
		{
			"bufferView":0,
			"componentType":5126,
			"count":1516,
			"max":[
				0.027553072199225426,
				0.007905078120529652,
				0.027086256071925163
			],
			"min":[
				0,
				0,
				0
			],
			"type":"VEC3"
		},
		{
			"bufferView":1,
			"componentType":5126,
			"count":1516,
			"type":"VEC3"
		},
		{
			"bufferView":2,
			"componentType":5126,
			"count":1516,
			"type":"VEC2"
		},
		{
			"bufferView":3,
			"componentType":5123,
			"count":2694,
			"type":"SCALAR"
		}
	],
	"bufferViews":[
		{
			"buffer":0,
			"byteLength":18192,
			"byteOffset":0,
			"target":34962
		},
		{
			"buffer":0,
			"byteLength":18192,
			"byteOffset":18192,
			"target":34962
		},
		{
			"buffer":0,
			"byteLength":12128,
			"byteOffset":36384,
			"target":34962
		},
		{
			"buffer":0,
			"byteLength":5388,
			"byteOffset":48512,
			"target":34963
		}
	],
	"buffers":[
		{
			"byteLength":53900,
			"uri":"github.bin"
		}
	]
}
